Exact Audio Copy V1.0 beta 1 from 15. November 2010

EAC extraction logfile from 6. March 2011, 14:38

Apocalyptica / Repressed

Used drive  : PIONEER DVD-RW  DVR-110D   Adapter: 0  ID: 0

Read mode               : Secure
Utilize accurate stream : Yes
Defeat audio cache      : Yes
Make use of C2 pointers : No

Read offset correction                      : 48
Overread into Lead-In and Lead-Out          : No
Fill up missing offset samples with silence : Yes
Delete leading and trailing silent blocks   : No
Null samples used in CRC calculations       : Yes
Used interface                              : Native Win32 interface for Win NT & 2000
Gap handling                                : Appended to previous track

Used output format              : User Defined Encoder
Selected bitrate                : 128 kBit/s
Quality                         : High
Add ID3 tag                     : No
Command line compressor         : C:\Program Files\Exact Audio Copy\Flac\flac.exe
Additional command line options : -V -8 -T "artist=%a" -T "title=%t" -T "album=%g" -T "date=%y" -T "tracknumber=%n" -T "genre=%m" %s 


TOC of the extracted CD

     Track |   Start  |  Length  | Start sector | End sector 
    ---------------------------------------------------------
        1  |  0:00.00 |  3:42.15 |         0    |    16664   
        2  |  3:42.15 |  3:26.08 |     16665    |    32122   
        3  |  7:08.23 |  3:53.73 |     32123    |    49670   
        4  | 13:34.21 | 15:57.59 |     61071    |   132904   


Track  1

     Filename D:\WHAT.CD\Apocalyptica  - Repressed (German CDS) (2006) - FLAC\01 - Apocalyptica - Repressed (feat. Matt Tuck & Max Cavalera).wav

     Pre-gap length  0:00:02.00

     Peak level 99.3 %
     Extraction speed 4.4 X
     Track quality 100.0 %
     Test CRC 8B3EFA6B
     Copy CRC 8B3EFA6B
     Accurately ripped (confidence 2)  [FA6681DD]
     Copy OK

Track  2

     Filename D:\WHAT.CD\Apocalyptica  - Repressed (German CDS) (2006) - FLAC\02 - Apocalyptica - Path Vol.2 (feat. Sandra Nasic).wav

     Pre-gap length  0:00:02.02

     Peak level 65.0 %
     Extraction speed 4.0 X
     Track quality 100.0 %
     Test CRC 605AA8FA
     Copy CRC 605AA8FA
     Accurately ripped (confidence 2)  [4F0B82FF]
     Copy OK

Track  3

     Filename D:\WHAT.CD\Apocalyptica  - Repressed (German CDS) (2006) - FLAC\03 - Apocalyptica - Betrayal.wav

     Pre-gap length  0:00:02.26

     Peak level 100.0 %
     Extraction speed 5.1 X
     Track quality 100.0 %
     Test CRC FFB1D428
     Copy CRC FFB1D428
     Accurately ripped (confidence 2)  [A7F3FABC]
     Copy OK


All tracks accurately ripped

No errors occurred

End of status report

==== Log checksum E1DFC8F7CE07B0CACB16CEEED74F92226A8DB965FC34D8A0222DAE215115CA85 ====
